<?xml version="1.0" encoding="utf-8"?>
<!-- Generator: Adobe Illustrator 16.0.0, SVG Export Plug-In . SVG Version: 6.00 Build 0)  -->
<!DOCTYPE svg PUBLIC "-//W3C//DTD SVG 1.1//EN" "http://www.w3.org/Graphics/SVG/1.1/DTD/svg11.dtd">
<svg version="1.1" id="Layer_1" xmlns="http://www.w3.org/2000/svg" xmlns:xlink="http://www.w3.org/1999/xlink" x="0px" y="0px"
	 width="1000px" height="1000px" viewBox="0 0 1000 1000" enable-background="new 0 0 1000 1000" xml:space="preserve">
<g>
	<g>
		<g>
			<g>
				<polygon fill="#EC2024" points="495.912,489.807 495.912,460.129 480.271,460.129 480.271,440.707 461.037,440.707 
					461.037,428.125 272.245,428.125 272.245,440.707 252.991,440.707 252.991,460.129 231.353,460.129 231.353,489.807 
					202.494,489.807 202.494,679.386 231.353,679.386 231.353,711.346 252.991,711.346 252.991,733.044 272.245,733.044 
					272.245,745.626 461.037,745.626 461.037,733.044 480.271,733.044 480.271,711.346 495.912,711.346 495.912,679.386 
					527.178,679.386 527.178,489.807 				"/>
			</g>
		</g>
		<g>
			<rect x="234.962" y="586.792" fill="#FFFFFF" width="54.509" height="54.509"/>
			<rect x="287.783" y="642.989" fill="#FFFFFF" width="59.617" height="59.616"/>
		</g>
	</g>
	<g>
		<g>
			<g>
				<polygon fill="#EC2024" points="674.785,590.507 674.785,560.823 659.164,560.823 659.164,541.4 639.933,541.4 639.933,528.818 
					451.118,528.818 451.118,541.4 431.884,541.4 431.884,560.823 410.224,560.823 410.224,590.507 381.368,590.507 
					381.368,780.079 410.224,780.079 410.224,812.084 431.884,812.084 431.884,833.744 451.118,833.744 451.118,846.326 
					639.933,846.326 639.933,833.744 659.164,833.744 659.164,812.084 674.785,812.084 674.785,780.079 706.052,780.079 
					706.052,590.507 				"/>
			</g>
		</g>
		<g>
			<rect x="413.835" y="687.492" fill="#FFFFFF" width="54.506" height="54.509"/>
			<rect x="466.653" y="743.688" fill="#FFFFFF" width="59.617" height="59.655"/>
		</g>
	</g>
	<polygon fill="#9E5F26" points="505.371,499.141 505.371,442.056 556.501,440.534 556.501,383.41 613.986,383.41 614.555,284.188 
		571.512,284.188 571.512,341.317 457.258,339.841 456.712,395.826 400.154,395.442 400.154,442.056 344.526,442.056 
		344.549,383.41 389.621,383.41 390.19,328.186 443.75,327.802 445.249,270.679 557.978,267.68 559.499,212.033 670.732,212.033 
		670.732,153.427 797.018,154.909 797.184,284.188 686.712,284.188 686.143,402.027 627.518,401.439 628.066,456.709 
		573.411,456.709 573.411,497.28 573.961,550.268 505.752,549.718 	"/>
</g>
</svg>
