<?xml version="1.0" encoding="utf-8"?>
<!-- Generator: Adobe Illustrator 16.0.0, SVG Export Plug-In . SVG Version: 6.00 Build 0)  -->
<!DOCTYPE svg PUBLIC "-//W3C//DTD SVG 1.1//EN" "http://www.w3.org/Graphics/SVG/1.1/DTD/svg11.dtd">
<svg version="1.1" id="Layer_1" xmlns="http://www.w3.org/2000/svg" xmlns:xlink="http://www.w3.org/1999/xlink" x="0px" y="0px"
	 width="1000px" height="1000px" viewBox="0 0 1000 1000" enable-background="new 0 0 1000 1000" xml:space="preserve">
<g>
	<polygon fill="#3155A5" points="863.932,781.338 863.757,778.253 863.757,372.636 806.757,373.676 805.76,203.847 756.144,203.847 
		755.144,149.276 703.573,149.276 703.573,96.798 599.3,95.752 597.304,70.029 386.848,70.029 385.848,94.712 286.661,95.752 
		286.661,148.276 232.005,147.236 232.005,200.761 175.353,200.761 174.353,365.465 134.903,364.426 135.903,780.292 
		175.353,780.292 175.612,737.063 231.008,737.063 231.008,678.368 287.009,678.02 287.009,732.938 339.622,733.629 
		340.273,782.338 438.115,783.029 438.115,678.02 540.647,677.368 539.954,782.338 657.999,783.029 658.692,730.202 
		706.569,730.202 706.093,677.368 754.624,677.368 755.144,729.854 805.76,728.808 805.76,781.857 	"/>
	<g>
		<rect x="361.997" y="363.945" fill="#FFFFFF" width="75.118" height="78.379"/>
		<rect x="549.858" y="363.945" fill="#FFFFFF" width="75.207" height="78.425"/>
		<rect x="265.938" y="575.313" fill="#FFFFFF" width="54.438" height="54.439"/>
		<rect x="319.726" y="520.269" fill="#FFFFFF" width="54.436" height="54.393"/>
		<rect x="374.206" y="574.661" fill="#FFFFFF" width="54.439" height="54.485"/>
		<rect x="428.646" y="520.269" fill="#FFFFFF" width="54.393" height="54.393"/>
		<rect x="482.43" y="574.057" fill="#FFFFFF" width="54.438" height="54.432"/>
		<rect x="536.217" y="520.223" fill="#FFFFFF" width="54.438" height="54.438"/>
		<rect x="590.655" y="574.661" fill="#FFFFFF" width="54.439" height="54.439"/>
		<rect x="645.095" y="520.223" fill="#FFFFFF" width="54.438" height="54.438"/>
	</g>
</g>
</svg>
