<?xml version="1.0" encoding="utf-8"?>
<!-- Generator: Adobe Illustrator 16.0.0, SVG Export Plug-In . SVG Version: 6.00 Build 0)  -->
<!DOCTYPE svg PUBLIC "-//W3C//DTD SVG 1.1//EN" "http://www.w3.org/Graphics/SVG/1.1/DTD/svg11.dtd">
<svg version="1.1" id="Layer_1" xmlns="http://www.w3.org/2000/svg" xmlns:xlink="http://www.w3.org/1999/xlink" x="0px" y="0px"
	 width="1000px" height="1000px" viewBox="0 0 1000 1000" enable-background="new 0 0 1000 1000" xml:space="preserve">
<g>
	<polygon fill="#69C6BE" points="823.324,814.978 823.183,812.236 823.183,452.365 772.594,453.274 771.704,302.58 727.707,302.58 
		726.816,254.165 681.026,254.165 681.026,207.582 588.557,206.673 586.751,183.835 400.004,183.835 399.108,205.757 
		311.126,206.673 311.126,253.256 262.647,252.34 262.647,299.833 212.361,299.833 211.465,445.974 176.452,445.059 
		177.349,814.062 212.361,814.062 212.588,775.694 261.744,775.694 261.744,723.636 311.43,723.333 311.43,772.038 358.109,772.657 
		358.709,815.887 445.498,816.5 445.498,723.333 536.472,722.727 535.878,815.887 640.615,816.5 641.222,769.606 683.723,769.606 
		683.271,722.727 726.365,722.727 726.816,769.304 771.704,768.388 771.704,815.429 	"/>
	<g>
		<polygon fill="#FFFFFF" points="686.418,348.138 634.334,348.138 634.334,303.244 539.168,303.244 539.168,348.138 
			497.866,348.138 497.866,485.502 539.168,485.502 539.168,533.981 634.334,533.981 634.334,485.502 686.418,485.502 		"/>
	</g>
	<g>
		<polygon fill="#FFFFFF" points="406.292,351.26 354.214,351.26 354.214,306.843 259.048,306.843 259.048,351.26 217.753,351.26 
			217.753,487.204 259.048,487.204 259.048,535.181 354.214,535.181 354.214,487.204 406.292,487.204 		"/>
	</g>
	<rect x="497.866" y="399.906" fill="#3155A5" width="89.787" height="85.292"/>
	<rect x="217.753" y="402.499" fill="#3155A5" width="89.774" height="84.396"/>
</g>
</svg>
