<?xml version="1.0" encoding="utf-8"?>
<!-- Generator: Adobe Illustrator 16.0.0, SVG Export Plug-In . SVG Version: 6.00 Build 0)  -->
<!DOCTYPE svg PUBLIC "-//W3C//DTD SVG 1.1//EN" "http://www.w3.org/Graphics/SVG/1.1/DTD/svg11.dtd">
<svg version="1.1" id="Layer_1" xmlns="http://www.w3.org/2000/svg" xmlns:xlink="http://www.w3.org/1999/xlink" x="0px" y="0px"
	 width="1000px" height="1000px" viewBox="0 0 1000 1000" enable-background="new 0 0 1000 1000" xml:space="preserve">
<g>
	<polygon fill="#F37721" points="824.583,816.062 824.435,813.308 824.435,451.946 773.646,452.862 772.744,301.529 
		728.572,301.529 727.67,252.915 681.687,252.915 681.687,206.138 588.829,205.222 587.023,182.295 399.503,182.295 
		398.601,204.307 310.245,205.222 310.245,251.999 261.559,251.083 261.559,298.775 211.073,298.775 210.171,445.523 
		175.009,444.601 175.912,815.14 211.073,815.14 211.306,776.624 260.662,776.624 260.662,724.34 310.548,724.043 310.548,772.948 
		357.435,773.567 358.027,816.978 445.177,817.59 445.177,724.043 536.531,723.431 535.938,816.978 641.113,817.59 641.72,770.504 
		684.389,770.504 683.943,723.431 727.218,723.431 727.67,770.2 772.744,769.285 772.744,816.52 	"/>
	<g>
		<polygon fill="#FFFFFF" points="687.091,347.281 634.806,347.281 634.806,302.2 539.24,302.2 539.24,347.281 497.771,347.281 
			497.771,485.212 539.24,485.212 539.24,533.898 634.806,533.898 634.806,485.212 687.091,485.212 		"/>
	</g>
	<g>
		<polygon fill="#FFFFFF" points="405.804,350.415 353.52,350.415 353.52,305.806 257.954,305.806 257.954,350.415 216.484,350.415 
			216.484,486.921 257.954,486.921 257.954,535.098 353.52,535.098 353.52,486.921 405.804,486.921 		"/>
	</g>
	<rect x="497.771" y="399.263" fill="#3155A5" width="90.154" height="85.653"/>
	<rect x="216.484" y="401.861" fill="#3155A5" width="90.155" height="84.764"/>
</g>
</svg>
