<?xml version="1.0" encoding="utf-8"?>
<!-- Generator: Adobe Illustrator 16.0.0, SVG Export Plug-In . SVG Version: 6.00 Build 0)  -->
<!DOCTYPE svg PUBLIC "-//W3C//DTD SVG 1.1//EN" "http://www.w3.org/Graphics/SVG/1.1/DTD/svg11.dtd">
<svg version="1.1" id="Layer_1" xmlns="http://www.w3.org/2000/svg" xmlns:xlink="http://www.w3.org/1999/xlink" x="0px" y="0px"
	 width="1000px" height="1000px" viewBox="0 0 1000 1000" enable-background="new 0 0 1000 1000" xml:space="preserve">
<g>
	<g>
		<polygon fill="#FCBA36" points="800.332,426.65 762.926,426.65 762.926,341.976 688.066,341.976 688.066,274.978 337.498,274.978 
			337.498,341.976 248.869,341.976 248.869,426.65 198.384,429.604 202.512,657.786 248.869,661.043 248.869,775.309 
			337.498,775.309 337.498,856.029 688.066,856.029 688.066,775.309 762.926,775.309 762.926,661.043 800.332,661.043 		"/>
	</g>
	<g>
		<polygon fill="#5FBB5B" points="673.295,146.982 540.349,146.982 540.349,143.029 457.628,143.029 457.628,338.021 
			540.349,338.021 540.349,229.71 673.295,229.71 		"/>
	</g>
	<rect x="284.276" y="414.835" fill="#FDE13B" width="82.767" height="210.755"/>
</g>
</svg>
