<?xml version="1.0" encoding="utf-8"?>
<!-- Generator: Adobe Illustrator 16.0.0, SVG Export Plug-In . SVG Version: 6.00 Build 0)  -->
<!DOCTYPE svg PUBLIC "-//W3C//DTD SVG 1.1//EN" "http://www.w3.org/Graphics/SVG/1.1/DTD/svg11.dtd">
<svg version="1.1" id="Layer_1" xmlns="http://www.w3.org/2000/svg" xmlns:xlink="http://www.w3.org/1999/xlink" x="0px" y="0px"
	 width="1000px" height="1000px" viewBox="0 0 1000 1000" enable-background="new 0 0 1000 1000" xml:space="preserve">
<g>
	<polygon fill="#FFF100" points="832.285,348.706 765.741,348.706 765.741,251.935 717.34,251.935 717.34,191.439 602.419,191.439 
		602.419,143.044 336.257,143.044 336.257,191.439 227.366,191.439 227.366,251.935 166.872,251.935 166.872,348.706 
		271.112,348.842 271.021,401.017 448.43,398.817 449.57,453.417 562.182,454.552 563.317,531.898 449.57,533.04 449.57,588.775 
		273.247,589.917 273.247,644.517 166.323,645.658 166.872,729.815 227.366,729.815 227.366,808.458 336.257,808.458 
		336.257,856.847 602.419,856.847 602.419,808.458 717.34,808.458 717.34,729.815 765.741,729.815 765.741,639.073 832.285,639.073 
			"/>
</g>
</svg>
