<?xml version="1.0" encoding="utf-8"?>
<!-- Generator: Adobe Illustrator 16.0.0, SVG Export Plug-In . SVG Version: 6.00 Build 0)  -->
<!DOCTYPE svg PUBLIC "-//W3C//DTD SVG 1.1//EN" "http://www.w3.org/Graphics/SVG/1.1/DTD/svg11.dtd">
<svg version="1.1" id="Layer_1" xmlns="http://www.w3.org/2000/svg" xmlns:xlink="http://www.w3.org/1999/xlink" x="0px" y="0px"
	 width="1000px" height="1000px" viewBox="0 0 1000 1000" enable-background="new 0 0 1000 1000" xml:space="preserve">
<g>
	<g>
		<polygon fill="#ED2524" points="815.014,349.635 745.43,349.635 745.43,275.109 713.173,275.109 713.173,237.875 298.389,237.875 
			298.389,275.109 266.132,275.109 266.132,349.635 184.18,349.635 184.18,652.617 266.132,652.617 266.132,789.202 
			320.769,789.202 320.769,846.326 454.863,846.326 454.863,789.202 579.036,789.202 579.036,838.897 710.683,838.897 
			710.683,789.202 745.43,789.202 745.43,652.617 815.014,652.617 		"/>
	</g>
	<polygon fill="#4AB375" points="449.922,347.142 487.162,345.921 485.938,275.109 560.416,275.109 559.191,154.654 
		490.877,153.427 492.146,234.16 451.146,234.16 449.922,162.128 261.151,162.128 259.928,237.875 335.672,237.875 335.672,267.68 
		334.447,292.505 448.656,291.284 	"/>
	<rect x="269.85" y="422.889" fill="#FFFFFF" width="64.598" height="113.026"/>
	<rect x="343.104" y="359.558" fill="#FFFFFF" width="34.072" height="59.616"/>
</g>
</svg>
