<?xml version="1.0" encoding="utf-8"?>
<!-- Generator: Adobe Illustrator 16.0.0, SVG Export Plug-In . SVG Version: 6.00 Build 0)  -->
<!DOCTYPE svg PUBLIC "-//W3C//DTD SVG 1.1//EN" "http://www.w3.org/Graphics/SVG/1.1/DTD/svg11.dtd">
<svg version="1.1" id="Layer_1" xmlns="http://www.w3.org/2000/svg" xmlns:xlink="http://www.w3.org/1999/xlink" x="0px" y="0px"
	 width="1000px" height="1000px" viewBox="0 0 1000 1000" enable-background="new 0 0 1000 1000" xml:space="preserve">
<g>
	<g>
		<g>
			<polygon fill="#F6EB15" points="657.84,623.611 657.84,556.048 597.32,556.048 597.32,437.835 415.8,437.835 415.8,831.933 
				471.282,831.933 471.282,888.24 536.842,888.24 536.842,831.933 597.32,831.933 597.32,753.126 637.684,753.126 637.684,685.563 
				597.32,685.563 597.32,623.611 			"/>
		</g>
	</g>
	<g>
		<polygon fill="#6ECDE8" points="694.162,255.921 638.68,255.921 638.68,175.24 371.4,175.24 371.4,255.921 305.837,255.921 
			305.837,392.087 371.4,392.087 371.4,462.684 638.68,462.684 638.68,392.087 694.162,392.087 		"/>
	</g>
	<rect x="465.025" y="516.082" fill="#FDBC11" width="63.04" height="271.103"/>
</g>
</svg>
