<?xml version="1.0" encoding="utf-8"?>
<!-- Generator: Adobe Illustrator 16.0.0, SVG Export Plug-In . SVG Version: 6.00 Build 0)  -->
<!DOCTYPE svg PUBLIC "-//W3C//DTD SVG 1.1//EN" "http://www.w3.org/Graphics/SVG/1.1/DTD/svg11.dtd">
<svg version="1.1" id="Layer_1" xmlns="http://www.w3.org/2000/svg" xmlns:xlink="http://www.w3.org/1999/xlink" x="0px" y="0px"
	 width="1000px" height="1000px" viewBox="0 0 1000 1000" enable-background="new 0 0 1000 1000" xml:space="preserve">
<g>
	<polygon fill="#FFF100" points="176.317,646.762 240.918,646.762 240.918,740.704 287.889,740.704 287.889,799.433 
		399.461,799.433 399.461,846.43 657.814,846.43 657.814,799.433 763.515,799.433 763.515,740.704 822.246,740.704 822.246,646.762 
		721.041,646.634 721.146,596.013 548.926,598.122 547.826,545.135 438.514,544.035 437.417,468.966 547.826,467.828 
		547.826,413.741 718.973,412.642 718.973,359.609 822.773,358.517 822.246,276.817 763.515,276.817 763.515,200.481 
		657.814,200.481 657.814,153.53 399.461,153.53 399.461,200.481 287.889,200.481 287.889,276.817 240.918,276.817 240.918,364.929 
		176.317,364.929 	"/>
</g>
</svg>
