<?xml version="1.0" encoding="utf-8"?>
<!-- Generator: Adobe Illustrator 16.0.0, SVG Export Plug-In . SVG Version: 6.00 Build 0)  -->
<!DOCTYPE svg PUBLIC "-//W3C//DTD SVG 1.1//EN" "http://www.w3.org/Graphics/SVG/1.1/DTD/svg11.dtd">
<svg version="1.1" id="Layer_1" xmlns="http://www.w3.org/2000/svg" xmlns:xlink="http://www.w3.org/1999/xlink" x="0px" y="0px"
	 width="1000px" height="1000px" viewBox="0 0 1000 1000" enable-background="new 0 0 1000 1000" xml:space="preserve">
<g>
	<polygon fill="#F6B8D1" points="816.998,808.874 816.856,806.185 816.856,453.601 767.3,454.497 766.423,306.847 723.315,306.847 
		722.438,259.412 677.577,259.412 677.577,213.764 586.964,212.874 585.21,190.501 402.243,190.501 401.366,211.978 
		315.165,212.874 315.165,258.516 267.659,257.626 267.659,304.151 218.399,304.151 217.522,447.339 183.212,446.436 
		184.089,807.978 218.399,807.978 218.618,770.385 266.782,770.385 266.782,719.384 315.448,719.087 315.448,766.812 
		361.187,767.405 361.78,809.764 446.82,810.363 446.82,719.087 535.95,718.487 535.37,809.764 637.991,810.363 638.571,764.426 
		680.208,764.426 679.77,718.487 722,718.487 722.438,764.129 766.423,763.226 766.423,809.319 	"/>
	<g>
		<polygon fill="#FFFFFF" points="682.853,351.482 631.825,351.482 631.825,307.492 538.581,307.492 538.581,351.482 
			498.132,351.482 498.132,486.066 538.581,486.066 538.581,533.565 631.825,533.565 631.825,486.066 682.853,486.066 		"/>
	</g>
	<g>
		<polygon fill="#FFFFFF" points="408.396,354.546 357.382,354.546 357.382,311.014 264.138,311.014 264.138,354.546 
			223.675,354.546 223.675,487.73 264.138,487.73 264.138,534.739 357.382,534.739 357.382,487.73 408.396,487.73 		"/>
	</g>
	<rect x="498.132" y="402.206" fill="#3155A5" width="87.955" height="83.564"/>
	<rect x="223.675" y="404.741" fill="#3155A5" width="87.969" height="82.692"/>
</g>
</svg>
