<?xml version="1.0" encoding="utf-8"?>
<!-- Generator: Adobe Illustrator 16.0.0, SVG Export Plug-In . SVG Version: 6.00 Build 0)  -->
<!DOCTYPE svg PUBLIC "-//W3C//DTD SVG 1.1//EN" "http://www.w3.org/Graphics/SVG/1.1/DTD/svg11.dtd">
<svg version="1.1" id="Layer_1" xmlns="http://www.w3.org/2000/svg" xmlns:xlink="http://www.w3.org/1999/xlink" x="0px" y="0px"
	 width="1000px" height="1000px" viewBox="0 0 1000 1000" enable-background="new 0 0 1000 1000" xml:space="preserve">
<g>
	<polygon fill="#EC2024" points="799.323,791.719 799.194,789.178 799.194,455.723 752.321,456.567 751.495,316.927 
		710.723,316.927 709.897,272.072 667.474,272.072 667.474,228.907 581.788,228.063 580.111,206.908 407.076,206.908 
		406.251,227.218 324.719,228.063 324.719,271.228 279.793,270.383 279.793,314.386 233.203,314.386 232.378,449.803 
		199.925,448.957 200.764,790.874 233.203,790.874 233.409,755.325 278.968,755.325 278.968,707.078 325.003,706.808 
		325.003,751.939 368.252,752.501 368.819,792.563 449.229,793.131 449.229,706.808 533.534,706.239 532.979,792.563 
		630.042,793.131 630.597,749.683 669.963,749.683 669.551,706.239 709.484,706.239 709.897,749.405 751.495,748.554 
		751.495,792.145 	"/>
	<g>
		<polygon fill="#FFFFFF" points="672.466,359.145 624.212,359.145 624.212,317.546 536.024,317.546 536.024,359.145 
			497.754,359.145 497.754,486.428 536.024,486.428 536.024,531.348 624.212,531.348 624.212,486.428 672.466,486.428 		"/>
	</g>
	<g>
		<polygon fill="#FFFFFF" points="412.906,362.034 364.653,362.034 364.653,320.881 276.465,320.881 276.465,362.034 
			238.208,362.034 238.208,488.002 276.465,488.002 276.465,532.463 364.653,532.463 364.653,488.002 412.906,488.002 		"/>
	</g>
	<rect x="497.754" y="407.121" fill="#3155A5" width="83.196" height="79.023"/>
	<rect x="238.208" y="409.514" fill="#3155A5" width="83.183" height="78.211"/>
</g>
</svg>
