<?xml version="1.0" encoding="utf-8"?>
<!-- Generator: Adobe Illustrator 16.0.0, SVG Export Plug-In . SVG Version: 6.00 Build 0)  -->
<!DOCTYPE svg PUBLIC "-//W3C//DTD SVG 1.1//EN" "http://www.w3.org/Graphics/SVG/1.1/DTD/svg11.dtd">
<svg version="1.1" id="Layer_1" xmlns="http://www.w3.org/2000/svg" xmlns:xlink="http://www.w3.org/1999/xlink" x="0px" y="0px"
	 width="1000px" height="1000px" viewBox="0 0 1000 1000" enable-background="new 0 0 1000 1000" xml:space="preserve">
<g>
	<g>
		<polygon fill="#ED2524" points="815.266,368.802 741.42,368.802 741.42,285.121 263.893,285.121 263.893,368.802 185.109,368.802 
			185.109,555.888 263.893,555.888 263.893,654.343 342.68,654.343 342.68,752.806 436.2,752.806 436.2,846.326 583.891,846.326 
			583.891,752.806 697.131,752.806 697.131,654.343 741.42,654.343 741.42,555.888 815.266,555.888 		"/>
	</g>
	<g>
		<polygon fill="#54B848" points="712.497,249.44 538.969,249.44 538.969,153.427 483.574,153.427 483.574,249.44 306.369,249.44 
			306.369,319.574 396.809,319.574 396.809,356.476 618.344,356.476 618.344,319.574 712.497,319.574 		"/>
	</g>
	<rect x="423.618" y="479.885" fill="#FFFFFF" width="65.233" height="69.833"/>
	<rect x="606.395" y="553.732" fill="#FFFFFF" width="65.191" height="69.834"/>
	<rect x="543.654" y="668.197" fill="#FFFFFF" width="65.189" height="69.834"/>
	<rect x="663.604" y="433.693" fill="#FFFFFF" width="34.114" height="36.569"/>
	<rect x="438.396" y="622.006" fill="#FFFFFF" width="35.971" height="38.545"/>
	<rect x="303.623" y="433.693" fill="#FFFFFF" width="45.096" height="48.346"/>
</g>
</svg>
